<?xml version="1.0" encoding="utf-8"?>
<svg version="1.1" id="Layer_1" xmlns="http://www.w3.org/2000/svg" xmlns:xlink="http://www.w3.org/1999/xlink" x="0px" y="0px"
	 width="127px" height="125px" viewBox="0 0 127 125" style="enable-background:new 0 0 127 125;" xml:space="preserve">
<style type="text/css">
	.st0{fill:#FFFFFF;}
	.st1{fill:#6BCA5E;}
</style>
<path class="st0" d="M44,81c-0.6,0-1-0.4-1-1v-4.2c0-0.6,0.4-1,1-1s1,0.4,1,1V80C45,80.6,44.6,81,44,81z"/>
<path class="st0" d="M48,81c-0.6,0-1-0.4-1-1v-4.2c0-0.6,0.4-1,1-1s1,0.4,1,1V80C49,80.6,48.6,81,48,81z"/>
<path class="st0" d="M21.9,81c-0.6,0-1-0.4-1-1v-4.2c0-0.6,0.4-1,1-1c0.6,0,1,0.4,1,1V80C22.9,80.6,22.4,81,21.9,81z"/>
<path class="st0" d="M25.9,81c-0.6,0-1-0.4-1-1v-4.2c0-0.6,0.4-1,1-1c0.6,0,1,0.4,1,1V80C26.9,80.6,26.4,81,25.9,81z"/>
<path class="st0" d="M13.9,81c-0.6,0-1-0.4-1-1v-4.2c0-0.6,0.4-1,1-1c0.6,0,1,0.4,1,1V80C14.9,80.6,14.4,81,13.9,81z"/>
<path class="st0" d="M17.9,81c-0.6,0-1-0.4-1-1v-4.2c0-0.6,0.4-1,1-1c0.6,0,1,0.4,1,1V80C18.9,80.6,18.4,81,17.9,81z"/>
<path class="st0" d="M90.1,81c-0.6,0-1-0.4-1-1v-4.2c0-0.6,0.4-1,1-1c0.6,0,1,0.4,1,1V80C91.1,80.6,90.7,81,90.1,81z"/>
<path class="st0" d="M94.1,81c-0.6,0-1-0.4-1-1v-4.2c0-0.6,0.4-1,1-1c0.6,0,1,0.4,1,1V80C95.1,80.6,94.7,81,94.1,81z"/>
<path class="st0" d="M52,81c-0.6,0-1-0.4-1-1v-4.2c0-0.6,0.4-1,1-1s1,0.4,1,1V80C53,80.6,52.6,81,52,81z"/>
<path class="st0" d="M56,81c-0.6,0-1-0.4-1-1v-4.2c0-0.6,0.4-1,1-1s1,0.4,1,1V80C57,80.6,56.6,81,56,81z"/>
<path class="st0" d="M60,81c-0.6,0-1-0.4-1-1v-4.2c0-0.6,0.4-1,1-1s1,0.4,1,1V80C61,80.6,60.6,81,60,81z"/>
<path class="st0" d="M64,81c-0.6,0-1-0.4-1-1v-4.2c0-0.6,0.4-1,1-1s1,0.4,1,1V80C65,80.6,64.6,81,64,81z"/>
<path class="st0" d="M68,81c-0.6,0-1-0.4-1-1v-4.2c0-0.6,0.4-1,1-1s1,0.4,1,1V80C69,80.6,68.6,81,68,81z"/>
<path class="st0" d="M72,81c-0.6,0-1-0.4-1-1v-4.2c0-0.6,0.4-1,1-1s1,0.4,1,1V80C73,80.6,72.6,81,72,81z"/>
<g>
	<path class="st1" d="M20.7,116.3h-2.2c-0.6,0-1.1-0.5-1.1-1.1s0.5-1.1,1.1-1.1h6.8c0.6,0,1.1,0.5,1.1,1.1s-0.5,1.1-1.1,1.1H23v7.3
		c0,0.6-0.5,1.2-1.2,1.2c-0.6,0-1.2-0.5-1.2-1.2V116.3z"/>
	<path class="st1" d="M27.9,115.3c0-0.6,0.5-1.2,1.2-1.2h3.6c1.3,0,2.4,0.4,3.1,1.1c0.6,0.6,0.9,1.4,0.9,2.4v0
		c0,1.7-0.8,2.7-2.1,3.2l1.6,1.9c0.2,0.3,0.4,0.5,0.4,0.9c0,0.6-0.5,1.1-1.1,1.1c-0.5,0-0.9-0.3-1.1-0.6l-2.2-2.8h-1.8v2.3
		c0,0.6-0.5,1.2-1.2,1.2c-0.6,0-1.2-0.5-1.2-1.2V115.3z M32.5,119.2c1.1,0,1.8-0.6,1.8-1.5v0c0-1-0.7-1.5-1.8-1.5h-2.3v3H32.5z"/>
	<path class="st1" d="M38.2,123.1l3.7-8.3c0.3-0.6,0.7-0.9,1.3-0.9h0.1c0.6,0,1.1,0.3,1.3,0.9l3.7,8.3c0.1,0.2,0.1,0.3,0.1,0.5
		c0,0.6-0.5,1.1-1.1,1.1c-0.5,0-0.9-0.3-1.1-0.8l-0.7-1.6h-4.6l-0.7,1.7c-0.2,0.5-0.6,0.7-1.1,0.7c-0.6,0-1.1-0.5-1.1-1.1
		C38,123.5,38.1,123.3,38.2,123.1z M44.7,120.2l-1.5-3.5l-1.5,3.5H44.7z"/>
	<path class="st1" d="M49.3,119.4L49.3,119.4c0-3,2.2-5.5,5.5-5.5c1.6,0,2.6,0.4,3.5,1.1c0.2,0.2,0.5,0.5,0.5,0.9
		c0,0.6-0.5,1.1-1.1,1.1c-0.3,0-0.5-0.1-0.7-0.2c-0.6-0.5-1.3-0.8-2.1-0.8c-1.8,0-3,1.5-3,3.3v0c0,1.8,1.2,3.3,3,3.3
		c1,0,1.6-0.3,2.3-0.8c0.2-0.2,0.4-0.3,0.7-0.3c0.6,0,1.1,0.5,1.1,1.1c0,0.4-0.2,0.6-0.4,0.8c-0.9,0.8-2.1,1.3-3.7,1.3
		C51.6,124.8,49.3,122.4,49.3,119.4z"/>
	<path class="st1" d="M60.9,115.2c0-0.6,0.5-1.2,1.2-1.2c0.6,0,1.2,0.5,1.2,1.2v3.5l4.3-4.2c0.3-0.3,0.6-0.5,1-0.5
		c0.6,0,1.1,0.5,1.1,1.1c0,0.4-0.2,0.6-0.4,0.9l-3,2.8l3.2,4c0.2,0.2,0.3,0.5,0.3,0.8c0,0.6-0.5,1.1-1.2,1.1c-0.5,0-0.7-0.2-1-0.6
		l-3-3.9l-1.3,1.2v2.1c0,0.6-0.5,1.2-1.2,1.2c-0.6,0-1.2-0.5-1.2-1.2V115.2z"/>
	<path class="st1" d="M71.6,123.5v-8.2c0-0.6,0.5-1.2,1.2-1.2h5.8c0.6,0,1,0.5,1,1c0,0.6-0.5,1-1,1h-4.7v2.1h4c0.6,0,1,0.5,1,1
		c0,0.6-0.5,1-1,1h-4v2.2h4.8c0.6,0,1,0.5,1,1c0,0.6-0.5,1-1,1h-5.9C72.1,124.6,71.6,124.1,71.6,123.5z"/>
	<path class="st1" d="M81.8,115.3c0-0.6,0.5-1.2,1.2-1.2h3.6c1.3,0,2.4,0.4,3.1,1.1c0.6,0.6,0.9,1.4,0.9,2.4v0
		c0,1.7-0.8,2.7-2.1,3.2l1.6,1.9c0.2,0.3,0.4,0.5,0.4,0.9c0,0.6-0.5,1.1-1.1,1.1c-0.5,0-0.9-0.3-1.1-0.6l-2.2-2.8h-1.8v2.3
		c0,0.6-0.5,1.2-1.2,1.2c-0.6,0-1.2-0.5-1.2-1.2V115.3z M86.4,119.2c1.1,0,1.8-0.6,1.8-1.5v0c0-1-0.7-1.5-1.8-1.5h-2.3v3H86.4z"/>
</g>
<path class="st1" d="M76.1,16.8c-10.6,8.1-20,15.2-32.6,10.7c-1.2,1.7-1.8,4.1-2.1,6.7c3.4,1.2,6.7,1.8,9.8,1.8
	c11.4,0,20.7-7.1,29.2-13.6c11.5-8.8,21.6-16.4,36-10.3c1.8-0.7,3.7-2.3,5.4-5.2C102.2-3.1,88.4,7.5,76.1,16.8z"/>
<path class="st0" d="M82.1,21v24.1c-1.8-0.3-6.3-1.8-10.7-8.3c-0.5-0.9-1-1.6-1.3-2.2c-0.3-0.5-0.5-0.8-0.6-1c0,0,0,0,0,0
	c-0.5-0.9-1-1.8-1.6-2.6c-1.5,0.8-3,1.6-4.5,2.3c0.6,0.8,1.1,1.8,1.6,2.7c0,0,0,0,0,0c0,0,0,0,0,0c0,0,0,0,0,0
	c0.7,1.3,1.4,2.4,2.1,3.5c3,5.2,7.9,15,7.9,28.4V80c0,1.4,1.1,2.5,2.5,2.5s2.5-1.1,2.5-2.5V51.8c0-0.6,0.5-1,1-1s1,0.5,1,1v0.7v40.3
	c0,1.4,1.1,2.5,2.5,2.5s2.5-1.1,2.5-2.5V52.5V17.4C85.5,18.5,83.8,19.8,82.1,21z"/>
<path class="st1" d="M38.9,25.4c-0.5-0.3-0.9-0.5-1.4-0.8c-7.4-4.5-15.9-9.6-29-0.2c-1.6,1.1-1.9,3.3-0.8,4.9
	c1.1,1.6,3.3,1.9,4.9,0.8c8.9-6.4,13.4-4.3,21.3,0.5c0.9,0.6,1.8,1,2.7,1.5C37,29.7,37.7,27.4,38.9,25.4z"/>
<path class="st0" d="M43.2,19.8c-2.9,0.7-5.5,2-7.7,3.6c0.7,0.4,1.3,0.8,2,1.2c0.5,0.3,0.9,0.5,1.4,0.8c-1.2,2-1.9,4.3-2.3,6.7
	c-0.9-0.5-1.8-1-2.7-1.5c-1.2-0.7-2.2-1.3-3.3-1.9c-1.1,1.9-1.7,3.9-1.7,5.9c0,0.1,0,0.1,0,0.2c0,0.1,0,0.3,0,0.4V80
	c0,1.4,1.1,2.5,2.5,2.5s2.5-1.1,2.5-2.5V35.2c0-0.6,0.5-1,1-1s1,0.5,1,1V80c0,1.4,1.1,2.5,2.5,2.5S41,81.4,41,80V40.8
	c0-5.3,0.4-11.7,3.6-14.6c1.6-1.4,3.9-2,7-1.7c2.2,0.4,4.5,1.4,6.8,3.2c1.7-0.6,3.4-1.3,5-2.2C57.8,20.1,50.6,18,43.2,19.8z"/>
<g>
	<path class="st0" d="M86.8,6.5c2.3-1.5,4.7-1.9,7.3-1.1c2-0.8,4.1-1.5,6.2-1.9c-0.9-0.9-1.7-1.6-2.6-2c-4.7-2.2-9.4-1.9-13.6,0.8
		c-1.2,0.8-1.5,2.3-0.7,3.5C84.1,6.9,85.7,7.3,86.8,6.5z"/>
	<path class="st0" d="M125.7,9l-3.9-2.1c0,0,0,0,0,0l0,0c0,0,0,0,0,0c-0.2,0.3-0.4,0.6-0.6,0.9c0,0.1-0.1,0.1-0.1,0.2
		c-0.2,0.3-0.4,0.5-0.6,0.8c0,0,0,0,0,0.1c-0.2,0.3-0.4,0.5-0.6,0.7c0,0-0.1,0.1-0.1,0.1c-0.2,0.2-0.4,0.4-0.6,0.6c0,0,0,0-0.1,0.1
		c-0.2,0.2-0.4,0.4-0.7,0.5c0,0,0,0-0.1,0c-0.2,0.2-0.4,0.3-0.6,0.4c0,0,0,0,0,0c-0.5,0.3-0.9,0.5-1.3,0.7l0,0l0,0
		c-3.1,1.3-5.9,0.1-6.9-0.4c0,0,0,0-0.1,0c0,0,0,0-0.1,0c-1-0.4-1.9-1-2.8-1.8c-2.2,0-4.3,0.2-6.4,0.8c2,2.1,4.3,4.3,7.1,5.5
		c0,0,0,0,0,0c0,0,0,0,0.1,0c0,0,0,0,0.1,0c0,0,0,0,0,0c1.8,0.8,3.9,1.4,6.1,1.4c3.2,0,6.7-1.2,9.6-4.3c1.2,0.7,2.8,0.3,3.5-0.9
		C127.3,11.2,126.9,9.7,125.7,9z"/>
</g>
<g>
	<path class="st0" d="M0,88.8c0-1.4,1.1-2.6,2.6-2.6h7c5.6,0,8.9,3.3,8.9,8v0.1c0,5.4-4.2,8.2-9.4,8.2H5.1v4.6
		c0,1.4-1.1,2.6-2.6,2.6c-1.4,0-2.6-1.1-2.6-2.6V88.8z M9.2,97.9c2.6,0,4.1-1.5,4.1-3.5v-0.1c0-2.3-1.6-3.5-4.2-3.5h-4v7.1H9.2z"/>
	<path class="st0" d="M20.6,106.9V88.8c0-1.4,1.1-2.6,2.6-2.6h12.9c1.3,0,2.3,1,2.3,2.3c0,1.3-1,2.3-2.3,2.3H25.7v4.7h8.9
		c1.3,0,2.3,1,2.3,2.3s-1,2.3-2.3,2.3h-8.9v4.9h10.5c1.3,0,2.3,1,2.3,2.3c0,1.3-1,2.3-2.3,2.3H23.2
		C21.7,109.5,20.6,108.4,20.6,106.9z"/>
	<path class="st0" d="M41.5,88.6c0-1.4,1.1-2.6,2.6-2.6h0.5c1.2,0,2,0.6,2.7,1.5l9.9,13v-12c0-1.4,1.1-2.5,2.5-2.5
		c1.4,0,2.5,1.1,2.5,2.5v18.5c0,1.4-1.1,2.6-2.6,2.6h-0.2c-1.2,0-2-0.6-2.7-1.5L46.6,94.7v12.5c0,1.4-1.1,2.5-2.5,2.5
		c-1.4,0-2.5-1.1-2.5-2.5V88.6z"/>
	<path class="st0" d="M66.5,88.6c0-1.4,1.1-2.6,2.6-2.6h0.5c1.2,0,2,0.6,2.7,1.5l9.9,13v-12c0-1.4,1.1-2.5,2.5-2.5s2.5,1.1,2.5,2.5
		V107c0,1.4-1.1,2.6-2.6,2.6l-0.1,0.1c-1.2,0-2-0.6-2.7-1.5L71.6,94.7v12.5c0,1.4-1.1,2.5-2.5,2.5c-1.4,0-2.5-1.1-2.5-2.5V88.6z"/>
	<path class="st0" d="M97.1,100.5l-7.5-10.2c-0.4-0.5-0.6-1.1-0.6-1.8c0-1.4,1.1-2.5,2.6-2.5c1.2,0,1.9,0.6,2.5,1.6l5.7,8.1l5.8-8.2
		c0.6-0.9,1.4-1.5,2.5-1.5c1.6,0,2.5,1.1,2.5,2.5c0,0.7-0.3,1.3-0.7,1.8l-7.5,10.1v6.7c0,1.4-1.1,2.6-2.6,2.6
		c-1.4,0-2.6-1.1-2.6-2.6V100.5z"/>
</g>
</svg>
