<?xml version="1.0" encoding="utf-8"?>
<!-- Generator: Adobe Illustrator 19.1.0, SVG Export Plug-In . SVG Version: 6.00 Build 0)  -->
<svg version="1.1" id="Layer_1" xmlns="http://www.w3.org/2000/svg" xmlns:xlink="http://www.w3.org/1999/xlink" x="0px" y="0px"
	 width="127px" height="125px" viewBox="-332 244 127 125" style="enable-background:new -332 244 127 125;" xml:space="preserve">
<style type="text/css">
	.st0{fill:#FFFFFF;}
	.st1{fill:#6BCA5E;}
</style>
<path class="st0" d="M-288,325c-0.6,0-1-0.4-1-1v-4.2c0-0.6,0.4-1,1-1s1,0.4,1,1v4.2C-287,324.6-287.4,325-288,325z"/>
<path class="st0" d="M-284,325c-0.6,0-1-0.4-1-1v-4.2c0-0.6,0.4-1,1-1s1,0.4,1,1v4.2C-283,324.6-283.4,325-284,325z"/>
<path class="st0" d="M-310.1,325c-0.6,0-1-0.4-1-1v-4.2c0-0.6,0.4-1,1-1s1,0.4,1,1v4.2C-309.1,324.6-309.6,325-310.1,325z"/>
<path class="st0" d="M-306.1,325c-0.6,0-1-0.4-1-1v-4.2c0-0.6,0.4-1,1-1s1,0.4,1,1v4.2C-305.1,324.6-305.6,325-306.1,325z"/>
<path class="st0" d="M-318.1,325c-0.6,0-1-0.4-1-1v-4.2c0-0.6,0.4-1,1-1s1,0.4,1,1v4.2C-317.1,324.6-317.6,325-318.1,325z"/>
<path class="st0" d="M-314.1,325c-0.6,0-1-0.4-1-1v-4.2c0-0.6,0.4-1,1-1s1,0.4,1,1v4.2C-313.1,324.6-313.6,325-314.1,325z"/>
<path class="st0" d="M-241.9,325c-0.6,0-1-0.4-1-1v-4.2c0-0.6,0.4-1,1-1c0.6,0,1,0.4,1,1v4.2C-240.9,324.6-241.3,325-241.9,325z"/>
<path class="st0" d="M-237.9,325c-0.6,0-1-0.4-1-1v-4.2c0-0.6,0.4-1,1-1c0.6,0,1,0.4,1,1v4.2C-236.9,324.6-237.3,325-237.9,325z"/>
<path class="st0" d="M-280,325c-0.6,0-1-0.4-1-1v-4.2c0-0.6,0.4-1,1-1s1,0.4,1,1v4.2C-279,324.6-279.4,325-280,325z"/>
<path class="st0" d="M-276,325c-0.6,0-1-0.4-1-1v-4.2c0-0.6,0.4-1,1-1s1,0.4,1,1v4.2C-275,324.6-275.4,325-276,325z"/>
<path class="st0" d="M-272,325c-0.6,0-1-0.4-1-1v-4.2c0-0.6,0.4-1,1-1s1,0.4,1,1v4.2C-271,324.6-271.4,325-272,325z"/>
<path class="st0" d="M-268,325c-0.6,0-1-0.4-1-1v-4.2c0-0.6,0.4-1,1-1s1,0.4,1,1v4.2C-267,324.6-267.4,325-268,325z"/>
<path class="st0" d="M-264,325c-0.6,0-1-0.4-1-1v-4.2c0-0.6,0.4-1,1-1s1,0.4,1,1v4.2C-263,324.6-263.4,325-264,325z"/>
<path class="st0" d="M-260,325c-0.6,0-1-0.4-1-1v-4.2c0-0.6,0.4-1,1-1s1,0.4,1,1v4.2C-259,324.6-259.4,325-260,325z"/>
<g>
	<path class="st1" d="M-311.3,360.3h-2.2c-0.6,0-1.1-0.5-1.1-1.1c0-0.6,0.5-1.1,1.1-1.1h6.8c0.6,0,1.1,0.5,1.1,1.1
		c0,0.6-0.5,1.1-1.1,1.1h-2.3v7.3c0,0.6-0.5,1.2-1.2,1.2c-0.6,0-1.2-0.5-1.2-1.2v-7.3H-311.3z"/>
	<path class="st1" d="M-304.1,359.3c0-0.6,0.5-1.2,1.2-1.2h3.6c1.3,0,2.4,0.4,3.1,1.1c0.6,0.6,0.9,1.4,0.9,2.4l0,0
		c0,1.7-0.8,2.7-2.1,3.2l1.6,1.9c0.2,0.3,0.4,0.5,0.4,0.9c0,0.6-0.5,1.1-1.1,1.1c-0.5,0-0.9-0.3-1.1-0.6l-2.2-2.8h-1.8v2.3
		c0,0.6-0.5,1.2-1.2,1.2c-0.6,0-1.2-0.5-1.2-1.2v-8.3H-304.1z M-299.5,363.2c1.1,0,1.8-0.6,1.8-1.5l0,0c0-1-0.7-1.5-1.8-1.5h-2.3v3
		H-299.5z"/>
	<path class="st1" d="M-293.8,367.1l3.7-8.3c0.3-0.6,0.7-0.9,1.3-0.9h0.1c0.6,0,1.1,0.3,1.3,0.9l3.7,8.3c0.1,0.2,0.1,0.3,0.1,0.5
		c0,0.6-0.5,1.1-1.1,1.1c-0.5,0-0.9-0.3-1.1-0.8l-0.7-1.6h-4.6l-0.7,1.7c-0.2,0.5-0.6,0.7-1.1,0.7c-0.6,0-1.1-0.5-1.1-1.1
		C-294,367.5-293.9,367.3-293.8,367.1z M-287.3,364.2l-1.5-3.5l-1.5,3.5H-287.3z"/>
	<path class="st1" d="M-282.7,363.4L-282.7,363.4c0-3,2.2-5.5,5.5-5.5c1.6,0,2.6,0.4,3.5,1.1c0.2,0.2,0.5,0.5,0.5,0.9
		c0,0.6-0.5,1.1-1.1,1.1c-0.3,0-0.5-0.1-0.7-0.2c-0.6-0.5-1.3-0.8-2.1-0.8c-1.8,0-3,1.5-3,3.3l0,0c0,1.8,1.2,3.3,3,3.3
		c1,0,1.6-0.3,2.3-0.8c0.2-0.2,0.4-0.3,0.7-0.3c0.6,0,1.1,0.5,1.1,1.1c0,0.4-0.2,0.6-0.4,0.8c-0.9,0.8-2.1,1.3-3.7,1.3
		C-280.4,368.8-282.7,366.4-282.7,363.4z"/>
	<path class="st1" d="M-271.1,359.2c0-0.6,0.5-1.2,1.2-1.2c0.6,0,1.2,0.5,1.2,1.2v3.5l4.3-4.2c0.3-0.3,0.6-0.5,1-0.5
		c0.6,0,1.1,0.5,1.1,1.1c0,0.4-0.2,0.6-0.4,0.9l-3,2.8l3.2,4c0.2,0.2,0.3,0.5,0.3,0.8c0,0.6-0.5,1.1-1.2,1.1c-0.5,0-0.7-0.2-1-0.6
		l-3-3.9l-1.3,1.2v2.1c0,0.6-0.5,1.2-1.2,1.2c-0.6,0-1.2-0.5-1.2-1.2C-271.1,367.5-271.1,359.2-271.1,359.2z"/>
	<path class="st1" d="M-260.4,367.5v-8.2c0-0.6,0.5-1.2,1.2-1.2h5.8c0.6,0,1,0.5,1,1c0,0.6-0.5,1-1,1h-4.7v2.1h4c0.6,0,1,0.5,1,1
		c0,0.6-0.5,1-1,1h-4v2.2h4.8c0.6,0,1,0.5,1,1c0,0.6-0.5,1-1,1h-5.9C-259.9,368.6-260.4,368.1-260.4,367.5z"/>
	<path class="st1" d="M-250.2,359.3c0-0.6,0.5-1.2,1.2-1.2h3.6c1.3,0,2.4,0.4,3.1,1.1c0.6,0.6,0.9,1.4,0.9,2.4l0,0
		c0,1.7-0.8,2.7-2.1,3.2l1.6,1.9c0.2,0.3,0.4,0.5,0.4,0.9c0,0.6-0.5,1.1-1.1,1.1c-0.5,0-0.9-0.3-1.1-0.6l-2.2-2.8h-1.8v2.3
		c0,0.6-0.5,1.2-1.2,1.2c-0.6,0-1.2-0.5-1.2-1.2v-8.3H-250.2z M-245.6,363.2c1.1,0,1.8-0.6,1.8-1.5l0,0c0-1-0.7-1.5-1.8-1.5h-2.3v3
		H-245.6z"/>
</g>
<path class="st1" d="M-255.9,260.8c-10.6,8.1-20,15.2-32.6,10.7c-1.2,1.7-1.8,4.1-2.1,6.7c3.4,1.2,6.7,1.8,9.8,1.8
	c11.4,0,20.7-7.1,29.2-13.6c11.5-8.8,21.6-16.4,36-10.3c1.8-0.7,3.7-2.3,5.4-5.2C-229.8,240.9-243.6,251.5-255.9,260.8z"/>
<path class="st0" d="M-249.9,265v24.1c-1.8-0.3-6.3-1.8-10.7-8.3c-0.5-0.9-1-1.6-1.3-2.2c-0.3-0.5-0.5-0.8-0.6-1l0,0
	c-0.5-0.9-1-1.8-1.6-2.6c-1.5,0.8-3,1.6-4.5,2.3c0.6,0.8,1.1,1.8,1.6,2.7l0,0l0,0l0,0c0.7,1.3,1.4,2.4,2.1,3.5
	c3,5.2,7.9,15,7.9,28.4V324c0,1.4,1.1,2.5,2.5,2.5s2.5-1.1,2.5-2.5v-28.2c0-0.6,0.5-1,1-1s1,0.5,1,1v0.7v40.3c0,1.4,1.1,2.5,2.5,2.5
	s2.5-1.1,2.5-2.5v-40.3v-35.1C-246.5,262.5-248.2,263.8-249.9,265z"/>
<path class="st1" d="M-293.1,269.4c-0.5-0.3-0.9-0.5-1.4-0.8c-7.4-4.5-15.9-9.6-29-0.2c-1.6,1.1-1.9,3.3-0.8,4.9
	c1.1,1.6,3.3,1.9,4.9,0.8c8.9-6.4,13.4-4.3,21.3,0.5c0.9,0.6,1.8,1,2.7,1.5C-295,273.7-294.3,271.4-293.1,269.4z"/>
<path class="st0" d="M-288.8,263.8c-2.9,0.7-5.5,2-7.7,3.6c0.7,0.4,1.3,0.8,2,1.2c0.5,0.3,0.9,0.5,1.4,0.8c-1.2,2-1.9,4.3-2.3,6.7
	c-0.9-0.5-1.8-1-2.7-1.5c-1.2-0.7-2.2-1.3-3.3-1.9c-1.1,1.9-1.7,3.9-1.7,5.9c0,0.1,0,0.1,0,0.2c0,0.1,0,0.3,0,0.4V324
	c0,1.4,1.1,2.5,2.5,2.5s2.5-1.1,2.5-2.5v-44.8c0-0.6,0.5-1,1-1s1,0.5,1,1V324c0,1.4,1.1,2.5,2.5,2.5s2.6-1.1,2.6-2.5v-39.2
	c0-5.3,0.4-11.7,3.6-14.6c1.6-1.4,3.9-2,7-1.7c2.2,0.4,4.5,1.4,6.8,3.2c1.7-0.6,3.4-1.3,5-2.2C-274.2,264.1-281.4,262-288.8,263.8z"
	/>
<g>
	<path class="st0" d="M-245.2,250.5c2.3-1.5,4.7-1.9,7.3-1.1c2-0.8,4.1-1.5,6.2-1.9c-0.9-0.9-1.7-1.6-2.6-2
		c-4.7-2.2-9.4-1.9-13.6,0.8c-1.2,0.8-1.5,2.3-0.7,3.5C-247.9,250.9-246.3,251.3-245.2,250.5z"/>
	<path class="st0" d="M-206.3,253l-3.9-2.1l0,0l0,0l0,0c-0.2,0.3-0.4,0.6-0.6,0.9c0,0.1-0.1,0.1-0.1,0.2c-0.2,0.3-0.4,0.5-0.6,0.8
		c0,0,0,0,0,0.1c-0.2,0.3-0.4,0.5-0.6,0.7l-0.1,0.1c-0.2,0.2-0.4,0.4-0.6,0.6c0,0,0,0-0.1,0.1c-0.2,0.2-0.4,0.4-0.7,0.5
		c0,0,0,0-0.1,0c-0.2,0.2-0.4,0.3-0.6,0.4l0,0c-0.5,0.3-0.9,0.5-1.3,0.7l0,0l0,0c-3.1,1.3-5.9,0.1-6.9-0.4c0,0,0,0-0.1,0
		c0,0,0,0-0.1,0c-1-0.4-1.9-1-2.8-1.8c-2.2,0-4.3,0.2-6.4,0.8c2,2.1,4.3,4.3,7.1,5.5l0,0c0,0,0,0,0.1,0c0,0,0,0,0.1,0l0,0
		c1.8,0.8,3.9,1.4,6.1,1.4c3.2,0,6.7-1.2,9.6-4.3c1.2,0.7,2.8,0.3,3.5-0.9C-204.7,255.2-205.1,253.7-206.3,253z"/>
</g>
<g>
	<path class="st0" d="M-332,332.8c0-1.4,1.1-2.6,2.6-2.6h7c5.6,0,8.9,3.3,8.9,8v0.1c0,5.4-4.2,8.2-9.4,8.2h-4v4.6
		c0,1.4-1.1,2.6-2.6,2.6c-1.4,0-2.6-1.1-2.6-2.6v-18.3H-332z M-322.8,341.9c2.6,0,4.1-1.5,4.1-3.5v-0.1c0-2.3-1.6-3.5-4.2-3.5h-4
		v7.1H-322.8z"/>
	<path class="st0" d="M-311.4,350.9v-18.1c0-1.4,1.1-2.6,2.6-2.6h12.9c1.3,0,2.3,1,2.3,2.3c0,1.3-1,2.3-2.3,2.3h-10.4v4.7h8.9
		c1.3,0,2.3,1,2.3,2.3c0,1.3-1,2.3-2.3,2.3h-8.9v4.9h10.5c1.3,0,2.3,1,2.3,2.3s-1,2.3-2.3,2.3h-13
		C-310.3,353.5-311.4,352.4-311.4,350.9z"/>
	<path class="st0" d="M-290.5,332.6c0-1.4,1.1-2.6,2.6-2.6h0.5c1.2,0,2,0.6,2.7,1.5l9.9,13v-12c0-1.4,1.1-2.5,2.5-2.5
		c1.4,0,2.5,1.1,2.5,2.5V351c0,1.4-1.1,2.6-2.6,2.6h-0.2c-1.2,0-2-0.6-2.7-1.5l-10.1-13.4v12.5c0,1.4-1.1,2.5-2.5,2.5
		s-2.5-1.1-2.5-2.5v-18.6H-290.5z"/>
	<path class="st0" d="M-265.5,332.6c0-1.4,1.1-2.6,2.6-2.6h0.5c1.2,0,2,0.6,2.7,1.5l9.9,13v-12c0-1.4,1.1-2.5,2.5-2.5
		s2.5,1.1,2.5,2.5V351c0,1.4-1.1,2.6-2.6,2.6l-0.1,0.1c-1.2,0-2-0.6-2.7-1.5l-10.2-13.5v12.5c0,1.4-1.1,2.5-2.5,2.5
		s-2.5-1.1-2.5-2.5v-18.6H-265.5z"/>
	<path class="st0" d="M-234.9,344.5l-7.5-10.2c-0.4-0.5-0.6-1.1-0.6-1.8c0-1.4,1.1-2.5,2.6-2.5c1.2,0,1.9,0.6,2.5,1.6l5.7,8.1
		l5.8-8.2c0.6-0.9,1.4-1.5,2.5-1.5c1.6,0,2.5,1.1,2.5,2.5c0,0.7-0.3,1.3-0.7,1.8l-7.5,10.1v6.7c0,1.4-1.1,2.6-2.6,2.6
		c-1.4,0-2.6-1.1-2.6-2.6v-6.6H-234.9z"/>
</g>
</svg>
